<?xml version="1.0" encoding="us-ascii" standalone="no"?><svg xmlns="http://www.w3.org/2000/svg" xmlns:xlink="http://www.w3.org/1999/xlink" contentStyleType="text/css" height="436px" preserveAspectRatio="none" style="width:796px;height:436px;background:#FFFFFF;" version="1.1" viewBox="0 0 796 436" width="796px" zoomAndPan="magnify"><defs/><g><!--entity Field Management System--><g id="elem_Field Management System"><rect fill="#F1F1F1" height="36.2969" rx="2.5" ry="2.5" style="stroke:#181818;stroke-width:0.5;" width="210" x="580.9909" y="158.5"/><text fill="#000000" font-family="sans-serif" font-size="14" lengthAdjust="spacing" textLength="190" x="590.9909" y="181.4951">Field Management System</text></g><!--entity Network Tables Server--><g id="elem_Network Tables Server"><path d="M335.1841,281.3015 C339.7377,274.3176 343.8879,273.9714 348.6484,281.1042 C350.9056,274.0882 356.5581,274.781 360.6,279.2463 C364.404,273.5319 368.6654,273.2046 372.8075,278.8841 C377.0309,272.6433 381.4573,270.2453 386.9779,277.5244 C392.3033,271.555 396.4376,271.7471 399.8985,279.3052 C401.5764,272.9636 406.6131,271.9315 410.8358,276.8288 C415.0054,270.6635 419.9195,271.9188 423.3217,277.6351 C427.8208,270.2351 433.5817,271.7046 437.285,278.4223 C441.4398,272.3591 445.8659,272.7257 449.181,279.2179 C453.5716,271.9778 457.9133,273.1274 462.7042,278.7987 C466.9426,272.8947 471.3636,272.2346 475.7868,278.6016 C480.1702,274.3774 483.7038,275.4007 486.3664,280.5449 C490.1715,274.0288 494.789,273.7824 499.8091,279.1731 C503.4742,273.6739 509.3898,274.3281 511.8537,280.4212 C521.3422,282.0428 524.001,289.0085 517.0461,296.082 C522.3041,303.0269 520.4712,308.6888 511.7227,310.4411 C509.0046,316.1647 504.2826,315.8974 500.8063,311.2382 C497.2047,318.7459 492.3508,319.5122 486.6444,313.4318 C483.5226,319.4815 477.6099,318.9852 474.0279,313.9559 C470.7372,318.4351 466.082,319.108 462.9006,313.8312 C459.063,320.6331 454.9193,320.1327 449.973,315.0359 C446.6769,321.4003 442.3142,322.0506 437.7223,316.3518 C434.6702,322.5255 428.7286,323.8527 424.6478,317.4184 C420.3813,324.5673 413.5658,322.8716 410.7684,315.9674 C407.0718,321.3812 402.7087,320.7744 399.9007,315.0967 C395.6212,320.819 388.7916,321.9242 385.1877,314.3491 C381.3849,321.1265 376.1377,319.3339 372.4745,314.2 C367.9489,318.6003 363.3224,318.1938 361.1065,311.7734 C356.7791,316.6908 352.4458,318.2584 348.6333,311.2354 C343.8483,317.2084 339.6604,315.8904 336.1145,309.9351 C328.1581,307.6343 326.3716,302.1809 331.9066,295.8496 C326.1847,290.4901 327.2808,283.5915 335.1841,281.3015 " fill="#F1F1F1" style="stroke:#181818;stroke-width:0.5;"/><text fill="#000000" font-family="sans-serif" font-size="14" lengthAdjust="spacing" textLength="163" x="341.4909" y="299.4951">Network Tables Server</text></g><!--entity Driver--><g id="elem_Driver"><ellipse cx="288.9909" cy="14" fill="#F1F1F1" rx="8" ry="8" style="stroke:#181818;stroke-width:0.5;"/><path d="M288.9909,22 L288.9909,49 M275.9909,30 L301.9909,30 M288.9909,49 L275.9909,64 M288.9909,49 L301.9909,64 " fill="none" style="stroke:#181818;stroke-width:0.5;"/><text fill="#000000" font-family="sans-serif" font-size="14" lengthAdjust="spacing" textLength="44" x="266.9909" y="78.4951">Driver</text></g><!--entity xRC Simulator--><g id="elem_xRC Simulator"><rect fill="#F1F1F1" height="36.2969" rx="2.5" ry="2.5" style="stroke:#181818;stroke-width:0.5;" width="121" x="34.4909" y="394.5"/><text fill="#000000" font-family="sans-serif" font-size="14" lengthAdjust="spacing" textLength="101" x="44.4909" y="417.4951">xRC Simulator</text></g><!--entity tmp\\xRCSim files--><g id="elem_tmp\\xRCSim files"><rect fill="#F1F1F1" height="32.2969" rx="2.5" ry="2.5" style="stroke:#181818;stroke-width:0.5;" width="141" x="26.4909" y="280.5"/><rect fill="#F1F1F1" height="32.2969" rx="2.5" ry="2.5" style="stroke:#181818;stroke-width:0.5;" width="141" x="22.4909" y="276.5"/><text fill="#000000" font-family="sans-serif" font-size="14" lengthAdjust="spacing" textLength="125" x="30.4909" y="297.4951">tmp\xRCSim files</text></g><!--entity SimBridge--><g id="elem_SimBridge"><rect fill="#F1F1F1" height="36.2969" rx="2.5" ry="2.5" style="stroke:#181818;stroke-width:0.5;" width="94" x="121.9909" y="158.5"/><text fill="#000000" font-family="sans-serif" font-size="14" lengthAdjust="spacing" textLength="74" x="131.9909" y="181.4951">SimBridge</text></g><!--entity FieldViz--><g id="elem_FieldViz"><rect fill="#F1F1F1" height="36.2969" rx="2.5" ry="2.5" style="stroke:#181818;stroke-width:0.5;" width="76" x="250.9909" y="158.5"/><text fill="#000000" font-family="sans-serif" font-size="14" lengthAdjust="spacing" textLength="56" x="260.9909" y="181.4951">FieldViz</text></g><!--entity SmartDashboard/Glass--><g id="elem_SmartDashboard/Glass"><rect fill="#F1F1F1" height="36.2969" rx="2.5" ry="2.5" style="stroke:#181818;stroke-width:0.5;" width="183" x="362.4909" y="158.5"/><text fill="#000000" font-family="sans-serif" font-size="14" lengthAdjust="spacing" textLength="163" x="372.4909" y="181.4951">SmartDashboard/Glass</text></g><!--link Field Management System to Network Tables Server--><g id="link_Field Management System_Network Tables Server"><path d="M647.1839,194.616 C601.0319,214.972 529.3756,246.5777 478.7086,268.9247 " fill="none" id="Field Management System-to-Network Tables Server" style="stroke:#181818;stroke-width:1.0;"/><polygon fill="#181818" points="473.2189,271.346,483.0677,271.3739,477.7937,269.3283,479.8393,264.0542,473.2189,271.346" style="stroke:#181818;stroke-width:1.0;"/><text fill="#000000" font-family="sans-serif" font-size="13" lengthAdjust="spacing" textLength="50" x="579.9909" y="237.5669">Creates</text></g><!--link SimBridge to Network Tables Server--><g id="link_SimBridge_Network Tables Server"><path d="M206.4699,194.616 C251.0429,214.972 320.0911,246.5065 369.0241,268.8535 " fill="none" id="SimBridge-to-Network Tables Server" style="stroke:#181818;stroke-width:1.0;"/><polygon fill="#181818" points="374.4819,271.346,367.9568,263.9687,369.9337,269.2689,364.6335,271.2458,374.4819,271.346" style="stroke:#181818;stroke-width:1.0;"/></g><!--reverse link FieldViz to Network Tables Server--><g id="link_FieldViz_Network Tables Server"><path d="M325.4139,197.6864 C339.1609,205.8854 349.9539,213.284 362.9909,224.5 C379.2369,238.477 395.0339,256.901 406.3379,271.195 " fill="none" id="FieldViz-backto-Network Tables Server" style="stroke:#181818;stroke-width:1.0;"/><polygon fill="#181818" points="320.2609,194.613,325.9415,202.6585,324.5551,197.1742,330.0394,195.7877,320.2609,194.613" style="stroke:#181818;stroke-width:1.0;"/></g><!--reverse link SmartDashboard/Glass to Network Tables Server--><g id="link_SmartDashboard/Glass_Network Tables Server"><path d="M447.8678,200.4126 C442.4448,220.7056 434.9399,248.788 428.9669,271.138 " fill="none" id="SmartDashboard/Glass-backto-Network Tables Server" style="stroke:#181818;stroke-width:1.0;"/><polygon fill="#181818" points="449.4169,194.616,443.2289,202.2782,448.126,199.4465,450.9577,204.3436,449.4169,194.616" style="stroke:#181818;stroke-width:1.0;"/></g><!--link xRC Simulator to tmp\\xRCSim files--><g id="link_xRC Simulator_tmp\\xRCSim files"><path d="M110.5469,394.0867 C116.9689,385.7511 123.6769,375.2545 126.9909,364.5 C132.6679,346.0758 125.1565,330.9508 114.478,317.2928 " fill="none" id="xRC Simulator-to-tmp\\xRCSim files" style="stroke:#181818;stroke-width:1.0;"/><polygon fill="#181818" points="110.7824,312.566,113.1746,322.1199,113.862,316.505,119.477,317.1924,110.7824,312.566" style="stroke:#181818;stroke-width:1.0;"/><text fill="#000000" font-family="sans-serif" font-size="13" lengthAdjust="spacing" textLength="76" x="129.9909" y="360.5669">Game state</text></g><!--link tmp\\xRCSim files to xRC Simulator--><g id="link_tmp\\xRCSim files_xRC Simulator"><path d="M52.4818,312.601 C28.6878,324.935 6,343.1327 17.9909,364.5 C25.1956,377.3385 32.2729,384.1239 44.9492,391.3188 " fill="none" id="tmp\\xRCSim files-to-xRC Simulator" style="stroke:#181818;stroke-width:1.0;"/><polygon fill="#181818" points="50.1673,394.2805,44.3146,386.3592,45.8189,391.8124,40.3657,393.3167,50.1673,394.2805" style="stroke:#181818;stroke-width:1.0;"/><text fill="#000000" font-family="sans-serif" font-size="13" lengthAdjust="spacing" textLength="99" x="18.9909" y="360.5669">Controller state</text></g><!--link SimBridge to tmp\\xRCSim files--><g id="link_SimBridge_tmp\\xRCSim files"><path d="M160.9279,194.511 C154.4629,207.666 144.8669,226.161 134.9909,241.5 C127.2219,253.567 121.1769,261.6811 113.2157,271.5551 " fill="none" id="SimBridge-to-tmp\\xRCSim files" style="stroke:#181818;stroke-width:1.0;"/><polygon fill="#181818" points="109.4497,276.226,118.2126,271.7304,112.588,272.3336,111.9848,266.709,109.4497,276.226" style="stroke:#181818;stroke-width:1.0;"/><text fill="#000000" font-family="sans-serif" font-size="13" lengthAdjust="spacing" textLength="99" x="145.9909" y="237.5669">Controller state</text></g><!--link tmp\\xRCSim files to SimBridge--><g id="link_tmp\\xRCSim files_SimBridge"><path d="M70.9255,276.418 C54.2326,262.413 36.9817,242.101 48.9909,224.5 C65.2582,200.658 89.744,190.2091 115.8472,184.4201 " fill="none" id="tmp\\xRCSim files-to-SimBridge" style="stroke:#181818;stroke-width:1.0;"/><polygon fill="#181818" points="121.7049,183.121,112.0523,181.1645,116.8235,184.2036,113.7844,188.9747,121.7049,183.121" style="stroke:#181818;stroke-width:1.0;"/><text fill="#000000" font-family="sans-serif" font-size="13" lengthAdjust="spacing" textLength="76" x="49.9909" y="237.5669">Game state</text></g><!--link Driver to FieldViz--><g id="link_Driver_FieldViz"><path d="M288.9909,81.689 C288.9909,106.802 288.9909,132.792 288.9909,152.18 " fill="none" id="Driver-to-FieldViz" style="stroke:#181818;stroke-width:1.0;"/><polygon fill="#181818" points="288.9909,158.18,292.9909,149.18,288.9909,153.18,284.9909,149.18,288.9909,158.18" style="stroke:#181818;stroke-width:1.0;"/><text fill="#000000" font-family="sans-serif" font-size="13" lengthAdjust="spacing" textLength="37" x="289.9909" y="124.5669">views</text></g><!--link Driver to SmartDashboard/Glass--><g id="link_Driver_SmartDashboard/Glass"><path d="M311.2439,62.167 C342.9989,87.379 396.2397,129.6493 427.6537,154.5893 " fill="none" id="Driver-to-SmartDashboard/Glass" style="stroke:#181818;stroke-width:1.0;"/><polygon fill="#181818" points="432.3529,158.32,427.7913,149.5912,428.4369,155.2111,422.817,155.8567,432.3529,158.32" style="stroke:#181818;stroke-width:1.0;"/><text fill="#000000" font-family="sans-serif" font-size="13" lengthAdjust="spacing" textLength="37" x="392.9909" y="124.5669">views</text></g><!--link Driver to SimBridge--><g id="link_Driver_SimBridge"><path d="M266.9809,68.527 C243.1639,94.528 209.8326,130.9146 188.7936,153.8826 " fill="none" id="Driver-to-SimBridge" style="stroke:#181818;stroke-width:1.0;"/><polygon fill="#181818" points="184.7409,158.307,193.7696,154.3723,188.1182,154.62,187.8705,148.9686,184.7409,158.307" style="stroke:#181818;stroke-width:1.0;"/><text fill="#000000" font-family="sans-serif" font-size="13" lengthAdjust="spacing" textLength="51" x="226.9909" y="124.5669">controls</text></g><!--SRC=[XP8nJyCm48Lt_ugJzuWzGWnjHISO2EhKvUeSmSAEqTbjWL-FxIe6GWoZxzvxz_bi76WC86yrcHxkSCI1RAfqxpwGbK8PT-n1tbCuEtw1HpmOyj0HduYb4AY2Ov0RrlcCbxItXpLqsXuDngu4ePmnf89semSPxEj-7nLH04ywfassM5YnxWUQOZBKJd-KtCuYXmtwvuD3xg-s1drqYoezDCrDZHrQa6ic30cWZFxJ8IOWk6wQkcePyn_FR6KPu_Uc4lGMBO4F4LoA9KcspkBINTqOEBq35tEvTNNUigysz5lUZ5DCFoGBonfRE6aw-v_ToleMjL_lreAwWFfF]--></g></svg>